<svg width="398" height="190" viewBox="0 0 398 190" fill="none" xmlns="http://www.w3.org/2000/svg">
<path d="M381.703 45.6697C378.905 45.6697 369.51 50.2878 357.684 63.1251C345.857 75.9624 331.765 93.1677 318.922 93.1677C315.89 93.5511 313.125 91.4005 312.742 88.3662C312.692 87.9661 312.692 87.5659 312.725 87.1658C312.725 84.9651 314.441 82.9145 317.856 82.0309C329.949 78.4465 348.905 62.6749 348.905 51.955C349.288 49.1541 347.323 46.57 344.524 46.1865C344.274 46.1532 344.025 46.1365 343.791 46.1365C338.661 46.1365 323.969 48.5706 305.779 70.344C304.413 72.3613 302.314 73.795 299.932 74.3452C298.217 74.3452 296.218 71.1442 296.218 64.7256V62.775C296.784 54.289 300.949 50.8213 300.949 48.0538C300.949 46.1365 300.149 45.4863 297.9 45.4863C292.77 45.4863 282.809 57.7234 281.026 57.7234C279.244 57.7234 277.878 52.105 276.212 50.0377C273.797 46.8367 270.499 46.0198 261.104 46.0198C256.39 46.0198 253.708 46.4366 249.477 46.4366C244.68 46.4366 243.581 46.2365 242.681 44.1359C241.782 42.0353 227.823 4.77377 195.874 4.77377C188.745 4.77377 181.249 7.90807 181.249 17.5944C181.249 27.2807 187.012 40.3847 211.199 48.3539C211.815 48.5539 212.398 48.6373 212.398 49.1208C212.398 50.1544 200.971 65.5758 190.677 67.3931C189.694 67.5264 188.795 66.8262 188.661 65.8426C188.645 65.7092 188.645 65.5925 188.661 65.4591C189.544 62.5082 190.077 59.4573 190.277 56.3897C190.277 51.4715 188.761 44.5694 179.466 44.5694C170.172 44.5694 160.161 48.704 134.125 73.8784L131.277 76.6292C129.528 78.2964 127.612 79.8136 125.563 81.114C123.864 82.381 121.832 83.0979 119.716 83.1646C119.233 83.1646 118.917 82.6311 120.016 81.0306L120.982 79.6635C122.115 78.0797 124.081 75.3622 126.363 72.2279C131.493 65.0924 138.256 56.0062 140.038 53.9723C142.937 50.6712 144.436 49.0541 144.436 47.9537C144.436 46.8534 142.62 45.653 140.422 45.653C134.525 46.2032 128.995 48.704 124.697 52.7886C122.548 54.8892 116.652 61.0411 109.322 68.1766C107.407 70.0272 105.358 71.9445 103.259 73.8617C91.3656 84.8151 77.64 95.7851 70.1441 95.7851C67.1458 95.7851 64.3307 93.7845 64.3307 88.9664C64.3307 85.7821 68.5284 75.4622 76.8238 63.7586C77.8732 62.2748 79.0059 60.7577 80.1719 59.2406C84.0197 54.3224 88.2674 49.7043 92.8481 45.4696C111.771 28.0143 133.825 19.495 147.334 19.495C151.882 19.6117 156.396 20.0285 160.877 20.7787C161.36 20.9454 161.893 20.712 162.109 20.2452C162.526 19.545 172.737 1.40607 172.737 1.40607C172.737 1.40607 172.737 0.889243 172.554 0.822556C170.688 0.239043 168.722 -0.0443745 166.757 0.00564094C151.382 0.00564094 118.084 7.69134 84.6361 31.9822C76.1741 38.0674 68.2119 44.8194 60.816 52.155C59.7166 53.2387 58.6839 54.3057 57.6845 55.3894C42.976 71.0275 36.1965 85.1819 36.1965 95.2516C36.1965 108.072 48.1898 109.689 54.4529 109.689C71.027 109.689 78.3729 102.004 81.6377 102.004C84.9026 102.004 79.6888 109.689 74.7749 112.874C33.7312 137.765 0 159.155 0 178.911C0 187.864 8.2454 188.447 14.5419 188.447C20.8384 188.447 51.5379 184.529 98.5283 111.54C100.727 108.106 104.375 106.138 107.823 103.621C111.288 101.103 122.498 92.9343 124.73 92.9009C126.962 92.8676 126.862 93.8679 126.779 94.8515C125.946 97.619 125.397 100.453 125.163 103.337C125.163 107.205 129.078 111.723 135.408 111.723C149.7 111.723 160.127 101.47 168.706 92.3341C172.604 87.6826 177.018 83.4647 181.848 79.7969C183.398 78.6965 185.247 78.063 187.145 77.9797C188.628 77.9797 189.194 78.6132 189.194 79.5635C189.194 79.7135 189.194 79.8636 189.194 80.0303C187.812 85.1819 186.879 90.4335 186.396 95.7518V96.2186C186.396 102.371 188.411 111.173 202.72 111.173C210.632 111.173 217.862 106.922 224.025 100.737C230.605 93.7845 235.935 85.732 239.783 76.946C242.798 70.9442 244.68 64.4422 245.346 57.7734C245.23 56.8398 245.896 55.9729 246.829 55.8562C246.962 55.8395 247.095 55.8395 247.245 55.8562C248.828 55.8562 253.292 56.3397 255.241 56.5231C258.222 56.8732 260.405 59.4906 260.205 62.4915C259.605 66.5595 258.222 70.4773 256.124 74.0284C251.659 82.7978 244.563 93.8012 239.466 101.57L234.902 108.522C234.902 108.522 233.57 110.14 235.568 110.14H254.275C255.241 109.99 256.09 109.389 256.557 108.522C256.79 108.222 258.689 105.288 261.121 101.554L272.848 83.6147C273.297 82.8478 274.097 82.3477 274.98 82.281C277.928 82.281 274.313 89.7666 285.224 89.7666C287.573 89.4999 289.905 88.983 292.137 88.1995C292.953 88.1995 293.036 88.8997 293.036 89.4999C292.287 92.0173 291.72 94.5848 291.321 97.1856V98.9361C291.321 104.071 292.553 112.324 301.315 112.324C318.555 112.324 340.027 90.4335 341.043 90.2834C342.059 90.1334 341.892 90.4668 341.892 91.1504C341.892 91.8339 339.46 100.603 314.224 131.279C288.989 161.939 276.629 174.009 276.629 180.628C276.412 185.413 280.06 189.481 284.824 189.781C287.389 189.781 298.45 189.197 324.685 146.484C343.408 116.025 352.253 97.2022 362.181 82.0643C366.279 75.6123 370.959 69.5271 376.173 63.9087C383.852 56.223 385.984 52.2717 385.984 50.4712C386.251 48.1371 384.585 46.0198 382.253 45.7531C382.053 45.7364 381.853 45.7197 381.653 45.7197L381.703 45.6697ZM335.113 57.7734C335.646 57.7734 336.412 58.2069 336.412 58.8738C336.412 63.3918 324.635 74.0785 320.887 74.0785C320.088 74.1285 319.388 73.4949 319.355 72.6947C319.355 72.678 319.355 72.6614 319.355 72.6447C319.455 69.227 331.248 57.7734 335.213 57.7734H335.113ZM23.8533 174.709C21.8378 174.976 19.9888 173.542 19.7223 171.525C19.6723 171.192 19.689 170.842 19.7223 170.508C19.7223 161.722 50.2053 138.698 53.8366 138.665C54.7527 138.665 55.0193 139.032 55.0193 139.765C55.0526 146.784 32.7817 174.709 23.8533 174.709ZM159.161 90.2501C155.746 93.151 152.432 95.385 150.649 95.385C147.368 95.385 146.368 93.5845 146.252 91.9006C146.168 90.2834 146.435 88.6663 147.068 87.1825C148.684 83.5314 150.832 80.147 153.448 77.1294C161.56 67.2764 173.936 57.59 177.084 57.5234C179.033 57.5234 179.833 58.2903 179.9 59.1405C180.183 62.6083 175.219 65.0423 172.22 67.2597C168.639 69.8271 167.456 70.6774 167.823 72.8781C168.023 74.0785 169.772 74.3952 169.972 76.5125C169.972 77.3461 169.739 78.1797 169.305 78.8966C166.574 83.2146 163.142 87.0491 159.161 90.2501ZM197.273 22.0291C197.123 18.5113 199.838 15.5271 203.353 15.3604C203.653 15.3604 203.936 15.3604 204.236 15.377C223.575 15.377 233.136 42.8688 233.136 44.6027C233.136 45.4696 232.62 45.9698 231.221 45.9698C224.258 45.9698 197.273 35.4666 197.273 22.0291ZM210.083 94.0013C208.15 94.2513 206.368 92.9009 206.118 90.9503C206.102 90.7836 206.085 90.6002 206.085 90.4335C206.568 86.5323 208.05 82.8311 210.416 79.6968C213.447 74.7287 217.312 70.3273 221.843 66.6762C225.99 64.1087 228.239 61.708 228.223 60.2909C228.206 58.8738 225.224 56.9899 224.924 55.6228C224.625 54.2557 225.874 53.0553 228.739 53.8722C232.87 54.9059 235.868 55.0226 235.968 58.0735C235.968 60.641 233.403 69.7605 228.772 78.2297C224.141 86.6823 217.778 94.0013 210.099 94.0013H210.083Z" fill="#810055"/>
<path d="M392.547 24.2462C388.633 24.2462 379.921 33.0655 379.921 37.3669C379.921 40.5679 384.818 42.7685 386.434 42.7685C388.999 42.7685 397.245 37.3669 397.245 29.9479C397.428 27.097 395.379 24.5963 392.564 24.2295L392.547 24.2462Z" fill="#810055"/>
</svg>
